<?xml version="1.0" encoding="UTF-8" standalone="no"?>
<!-- Created with Inkscape (http://www.inkscape.org/) -->

<svg
   xmlns:dc="http://purl.org/dc/elements/1.1/"
   xmlns:cc="http://creativecommons.org/ns#"
   xmlns:rdf="http://www.w3.org/1999/02/22-rdf-syntax-ns#"
   xmlns:svg="http://www.w3.org/2000/svg"
   xmlns="http://www.w3.org/2000/svg"
   xmlns:sodipodi="http://sodipodi.sourceforge.net/DTD/sodipodi-0.dtd"
   xmlns:inkscape="http://www.inkscape.org/namespaces/inkscape"
   width="500mm"
   height="17.441999mm"
   viewBox="0 0 499.99999 17.441999"
   version="1.1"
   id="svg8"
   inkscape:export-filename="/home/xeroc/downloads/bitsharesbanner.png"
   inkscape:export-xdpi="400"
   inkscape:export-ydpi="400"
   inkscape:version="0.92.1 r"
   sodipodi:docname="banner.svg">
  <defs
     id="defs2">
    <linearGradient
       id="linearGradient-1"
       y2="720.01819"
       x2="699.64471"
       y1="83.421288"
       x1="699.64471"
       gradientTransform="scale(0.78148328,1.2796179)"
       gradientUnits="userSpaceOnUse">
      <stop
         id="stop4595"
         offset="0%"
         stop-color="#00A9E0" />
      <stop
         id="stop4597"
         offset="100%"
         stop-color="#00587C" />
    </linearGradient>
  </defs>
  <sodipodi:namedview
     id="base"
     pagecolor="#ffffff"
     bordercolor="#666666"
     borderopacity="1.0"
     inkscape:pageopacity="0.0"
     inkscape:pageshadow="2"
     inkscape:zoom="0.9899495"
     inkscape:cx="1345.7998"
     inkscape:cy="-39.705567"
     inkscape:document-units="mm"
     inkscape:current-layer="layer1"
     showgrid="false"
     inkscape:window-width="1680"
     inkscape:window-height="1023"
     inkscape:window-x="0"
     inkscape:window-y="0"
     inkscape:window-maximized="1" />
  <metadata
     id="metadata5">
    <rdf:RDF>
      <cc:Work
         rdf:about="">
        <dc:format>image/svg+xml</dc:format>
        <dc:type
           rdf:resource="http://purl.org/dc/dcmitype/StillImage" />
        <dc:title></dc:title>
      </cc:Work>
    </rdf:RDF>
  </metadata>
  <g
     inkscape:label="Layer 1"
     inkscape:groupmode="layer"
     id="layer1"
     transform="translate(0,-279.558)">
    <g
       id="g46"
       inkscape:export-filename="/home/xeroc/downloads/g46.png"
       inkscape:export-xdpi="400"
       inkscape:export-ydpi="400">
      <path
         style="fill:#189fce;fill-rule:evenodd;stroke:none;stroke-width:0.37604985"
         inkscape:connector-curvature="0"
         d="m 0,279.558 h 500.41113 v 17.44161 H 0 Z"
         id="Background" />
      <path
         id="Fill-2"
         d="m 3.4954682,285.57291 v 1.74851 h 1.3316716 c 0.020553,-0.10775 0.063526,-0.20769 0.1238251,-0.29456 l -1.4554967,-1.45395"
         inkscape:connector-curvature="0"
         style="fill:#ffffff;fill-rule:evenodd;stroke:none;stroke-width:0.05619476" />
      <path
         id="Fill-3"
         d="m 3.4954682,287.61122 c 0.031933,0.46983 0.2192841,0.90081 0.5127955,1.23626 l 0.9423615,-0.94119 c -0.060299,-0.0872 -0.1031027,-0.18715 -0.1234854,-0.29507 H 3.4954682"
         inkscape:connector-curvature="0"
         style="fill:#ffffff;fill-rule:evenodd;stroke:none;stroke-width:0.05619476" />
      <path
         id="Fill-4"
         d="m 6.9681759,285.88732 c -0.335976,-0.2932 -0.763843,-0.48035 -1.2377415,-0.51225 v 1.33212 c 0.1070093,0.02 0.2062055,0.0616 0.2926625,0.12064 l 0.945079,-0.94051"
         inkscape:connector-curvature="0"
         style="fill:#ffffff;fill-rule:evenodd;stroke:none;stroke-width:0.05619476" />
      <path
         id="Fill-5"
         d="m 6.2391529,287.8827 0.94474,0.94357 c 0.28281,-0.33206 0.466764,-0.75591 0.498528,-1.21861 h -1.33439 c -0.01851,0.0998 -0.05605,0.19258 -0.108878,0.27504"
         inkscape:connector-curvature="0"
         style="fill:#ffffff;fill-rule:evenodd;stroke:none;stroke-width:0.05619476" />
      <path
         id="Fill-6"
         d="m 7.6824209,287.32498 c -0.031764,-0.46983 -0.219285,-0.90081 -0.512796,-1.23625 l -0.943041,0.94203 c 0.05945,0.0871 0.101234,0.18682 0.121277,0.29422 h 1.33456"
         inkscape:connector-curvature="0"
         style="fill:#ffffff;fill-rule:evenodd;stroke:none;stroke-width:0.05619476" />
      <path
         id="Fill-7"
         d="m 4.2098828,289.04888 c 0.3359753,0.2932 0.7638428,0.48035 1.2377412,0.51225 v -1.33432 c -0.1068394,-0.0193 -0.2060354,-0.0601 -0.292662,-0.11844 l -0.9450792,0.94051"
         inkscape:connector-curvature="0"
         style="fill:#ffffff;fill-rule:evenodd;stroke:none;stroke-width:0.05619476" />
      <path
         id="Fill-8"
         d="m 5.7304344,289.56113 c 0.4738985,-0.0319 0.9017655,-0.21905 1.2377415,-0.51225 l -0.94457,-0.94356 c -0.08663,0.0592 -0.1859923,0.10095 -0.2931715,0.12098 v 1.33483"
         inkscape:connector-curvature="0"
         style="fill:#ffffff;fill-rule:evenodd;stroke:none;stroke-width:0.05619476" />
      <path
         id="Fill-9"
         d="M 5.4440571,284.52025 3.492071,282.78582 c 0.0034,0 0.0034,2.29249 0.0034,2.35255 0.3563581,0.35938 1.4677264,1.46956 1.6754604,1.67708 0.081871,-0.0523 0.1741025,-0.0898 0.2731286,-0.10826 v -2.18694"
         inkscape:connector-curvature="0"
         style="fill:#ffffff;fill-rule:evenodd;stroke:none;stroke-width:0.05619476" />
    </g>
    <g
       id="g5248"
       display="none"
       style="display:none"
       transform="matrix(0.26458333,0,0,0.26458333,34.135028,-21.836145)">
      <rect
         id="rect5234"
         height="62.299999"
         width="5.5"
         display="inline"
         y="300.10001"
         x="355.10001"
         style="display:inline;fill:#e6007e" />
      <rect
         id="rect5236"
         height="62.299999"
         width="5.5"
         display="inline"
         y="289.10001"
         x="366.10001"
         style="display:inline;fill:#e6007e" />
      <rect
         id="rect5238"
         height="62.299999"
         width="5.5"
         display="inline"
         y="289.10001"
         x="449.89999"
         style="display:inline;fill:#e6007e" />
      <rect
         id="rect5240"
         height="62.299999"
         width="5.5"
         display="inline"
         y="289.10001"
         x="501.70001"
         style="display:inline;fill:#e6007e" />
      <rect
         id="rect5242"
         height="62.299999"
         width="5.5"
         display="inline"
         y="289.10001"
         x="557"
         style="display:inline;fill:#e6007e" />
      <rect
         id="rect5244"
         height="62.299999"
         width="5.5"
         display="inline"
         y="289.10001"
         x="594.90002"
         style="display:inline;fill:#e6007e" />
      <rect
         id="rect5246"
         height="62.299999"
         width="5.5"
         display="inline"
         y="289.10001"
         x="655.5"
         style="display:inline;fill:#e6007e" />
    </g>
  </g>
</svg>
