<?xml version="1.0" encoding="UTF-8" standalone="no"?>
<!-- Created with Inkscape (http://www.inkscape.org/) -->

<svg
   xmlns:sketch="http://www.bohemiancoding.com/sketch/ns"
   xmlns:dc="http://purl.org/dc/elements/1.1/"
   xmlns:cc="http://creativecommons.org/ns#"
   xmlns:rdf="http://www.w3.org/1999/02/22-rdf-syntax-ns#"
   xmlns:svg="http://www.w3.org/2000/svg"
   xmlns="http://www.w3.org/2000/svg"
   xmlns:sodipodi="http://sodipodi.sourceforge.net/DTD/sodipodi-0.dtd"
   xmlns:inkscape="http://www.inkscape.org/namespaces/inkscape"
   width="156.58501mm"
   height="51.037998mm"
   viewBox="0 0 156.58501 51.037998"
   version="1.1"
   id="svg5629"
   inkscape:version="0.92.2 5c3e80d, 2017-08-06"
   sodipodi:docname="foundation_logo_pure_white.svg"
   inkscape:export-filename="/home/schiessl/Projekte/BitShares Blockchain Foundation/bitshares.foundation/img/foundation_logo_white_black.png"
   inkscape:export-xdpi="300.00488"
   inkscape:export-ydpi="300.00488">
  <defs
     id="defs5623">
    <linearGradient
       id="linearGradient-1"
       y2="720.01819"
       x2="699.64471"
       y1="83.421288"
       x1="699.64471"
       gradientTransform="matrix(0.04864707,0,0,0.07965578,-18.20824,239.54523)"
       gradientUnits="userSpaceOnUse">
      <stop
         id="stop4595"
         offset="0%"
         stop-color="#00A9E0" />
      <stop
         id="stop4597"
         offset="100%"
         stop-color="#00587C" />
    </linearGradient>
  </defs>
  <sodipodi:namedview
     id="base"
     pagecolor="#ffffff"
     bordercolor="#666666"
     borderopacity="1.0"
     inkscape:pageopacity="0.0"
     inkscape:pageshadow="2"
     inkscape:zoom="1.979899"
     inkscape:cx="200.90413"
     inkscape:cy="24.564472"
     inkscape:document-units="mm"
     inkscape:current-layer="layer1"
     showgrid="false"
     inkscape:window-width="2560"
     inkscape:window-height="1021"
     inkscape:window-x="1920"
     inkscape:window-y="0"
     inkscape:window-maximized="1" />
  <metadata
     id="metadata5626">
    <rdf:RDF>
      <cc:Work
         rdf:about="">
        <dc:format>image/svg+xml</dc:format>
        <dc:type
           rdf:resource="http://purl.org/dc/dcmitype/StillImage" />
        <dc:title></dc:title>
      </cc:Work>
    </rdf:RDF>
  </metadata>
  <g
     inkscape:label="Layer 1"
     inkscape:groupmode="layer"
     id="layer1"
     transform="translate(0,-245.962)">
    <path
       sketch:type="MSShapeGroup"
       id="Fill-1"
       d="m 0.48853378,282.28438 c 0.24037768,3.53283 1.60868122,6.74646 3.73908742,9.26326 l 7.1130768,-7.29892 c -0.378513,-0.5867 -0.652971,-1.25078 -0.794008,-1.96434 z M 12.9476,285.80099 5.7884281,293.05345 c 2.4686167,2.17215 5.6207109,3.56727 9.0855329,3.81199 v -10.25488 c -0.699898,-0.14417 -1.350897,-0.42364 -1.926361,-0.80957 z m 5.871729,0 c -0.575464,0.38593 -1.226463,0.6654 -1.926361,0.80957 v 10.25488 c 3.464822,-0.24472 6.616916,-1.64021 9.085533,-3.81199 z m 2.40091,-3.51661 c -0.141037,0.71356 -0.415495,1.37764 -0.794008,1.96396 l 7.113077,7.2993 c 2.130406,-2.5168 3.49871,-5.73043 3.739087,-9.26326 z m 0,-2.14427 h 10.058156 c -0.240377,-3.5326 -1.608681,-6.74636 -3.739087,-9.26326 l -7.113077,7.29921 c 0.378513,0.58672 0.652971,1.25046 0.794008,1.96405 z m -2.40091,-3.68815 7.159172,-7.25222 c -2.468617,-2.17208 -5.620711,-3.56752 -9.085533,-3.81223 v 10.25454 c 0.699898,0.14416 1.350897,0.42399 1.926361,0.80991 z M 0.40440834,263.83788 12.797641,276.53773 c 0.569999,-0.3862 1.214818,-0.66623 1.908069,-0.81013 V 259.26525 L 0.40440834,246.26059 Z M 11.226426,278.18094 c -0.377177,0.58527 -0.650667,1.24735 -0.791205,1.95917 H 0.37426207 v -13.12296 z"
       inkscape:connector-curvature="0"
       style="fill:#ffffff;fill-rule:evenodd;stroke:none;stroke-width:0.06224966;stroke-opacity:1;fill-opacity:1" />
    <g
       style="fill:none;fill-rule:evenodd;stroke:none;stroke-width:1"
       transform="matrix(0.06224966,0,0,0.06224966,-0.0313393,245.95694)"
       id="icon">
      <g
         id="Group" />
    </g>
    <g
       style="fill:none;fill-rule:evenodd;stroke:none;stroke-width:1"
       id="g4904"
       transform="matrix(0.06224966,0,0,0.06224966,22.503038,265.87683)" />
    <g
       style="fill:none;fill-rule:evenodd;stroke:none;stroke-width:1"
       id="g4906"
       transform="matrix(0.06224966,0,0,0.06224966,26.051268,282.12399)" />
    <g
       style="fill:none;fill-rule:evenodd;stroke:none;stroke-width:1"
       id="g4908"
       transform="matrix(0.06224966,0,0,0.06224966,22.503038,285.79672)" />
    <g
       style="fill:none;fill-rule:evenodd;stroke:none;stroke-width:1"
       id="g4921"
       transform="matrix(0.06224966,0,0,0.06224966,5.9446281,246.33044)">
      <g
         id="g4910"
         transform="translate(87,642)" />
      <g
         id="paths" />
      <g
         transform="translate(211,664)"
         id="Path-48-+-Path-49" />
      <g
         id="g4914"
         transform="translate(1,356)" />
      <g
         transform="translate(3,577)"
         id="path">
        <g
           id="g4918">
          <g
             id="g4916" />
        </g>
      </g>
    </g>
    <g
       style="fill:none;fill-rule:evenodd;stroke:none;stroke-width:1"
       id="g4923"
       transform="matrix(0.06224966,0,0,0.06224966,-9.6800366,281.87499)" />
    <g
       style="fill:none;fill-rule:evenodd;stroke:none;stroke-width:1"
       transform="matrix(0.06224966,0,0,0.06224966,5.5711301,269.73631)"
       id="Group-+-Stroke-171-2">
      <g
         id="g4925" />
    </g>
    <g
       style="fill:none;fill-rule:evenodd;stroke:none;stroke-width:1"
       id="g4930"
       transform="matrix(0.06224966,0,0,0.06224966,5.5711301,245.95694)">
      <g
         id="g4928" />
    </g>
    <line
       style="fill:#ffffff;stroke:none;stroke-opacity:1;fill-opacity:1"
       x1="59.033218"
       y1="262.11908"
       x2="59.033218"
       y2="262.11908"
       id="line5192" />
    <polygon
       style="fill:#ffffff;stroke:none;stroke-opacity:1;fill-opacity:1"
       points="351.8,276.9 351.8,265.7 361.2,273.5 361.2,284.8 "
       id="polygon5194"
       transform="matrix(0.26458333,0,0,0.26458333,-36.21678,187.03054)" />
    <path
       style="fill:#ffffff;fill-opacity:1;stroke:none;stroke-opacity:1"
       inkscape:connector-curvature="0"
       d="m 53.873844,266.51137 c -0.687917,-0.74083 -1.508125,-1.34937 -2.434167,-1.77271 -0.926041,-0.42333 -1.984375,-0.66145 -3.095625,-0.66145 -1.640416,0 -3.122083,0.44979 -4.365625,1.34937 -0.740833,0.52917 -1.375833,1.19063 -1.878541,1.95792 l 0,-13.28209 -1.455209,0 0,26.64355 1.455209,0 0,-3.12209 c 0.502708,0.76729 1.137708,1.42875 1.878541,1.95792 1.243542,0.89958 2.69875,1.34937 4.365625,1.34937 1.11125,0 2.169584,-0.21166 3.095625,-0.635 0.926042,-0.42333 1.74625,-1.00541 2.434167,-1.74625 0.687917,-0.74083 1.217083,-1.64041 1.5875,-2.64583 0.370417,-1.00542 0.582083,-2.14312 0.582083,-3.36021 0,-1.19062 -0.185208,-2.32833 -0.582083,-3.36021 -0.370417,-1.00541 -0.926042,-1.905 -1.5875,-2.67229 z m 0.687917,6.05896 c 0,1.03188 -0.15875,1.98438 -0.449792,2.83104 -0.291042,0.84667 -0.740833,1.5875 -1.27,2.16959 -0.555625,0.60854 -1.217083,1.05833 -1.984375,1.40229 -0.767292,0.3175 -1.613958,0.50271 -2.54,0.50271 -0.926042,0 -1.772708,-0.15875 -2.54,-0.50271 -0.767292,-0.3175 -1.42875,-0.79375 -1.984375,-1.40229 -0.555625,-0.60855 -0.978958,-1.32292 -1.296458,-2.16959 -0.291042,-0.84666 -0.449792,-1.79916 -0.449792,-2.83104 0,-1.03187 0.15875,-1.98437 0.449792,-2.83104 0.291041,-0.84667 0.740833,-1.5875 1.296458,-2.19604 0.555625,-0.60854 1.217083,-1.08479 1.984375,-1.42875 0.767292,-0.34396 1.613958,-0.50271 2.513542,-0.50271 0.899583,0 1.772708,0.15875 2.513541,0.50271 0.767292,0.34396 1.42875,0.82021 1.984375,1.42875 0.555625,0.60854 0.978959,1.34937 1.296459,2.19604 0.3175,0.84667 0.47625,1.79917 0.47625,2.83104 z"
       id="path5196" />
    <rect
       style="fill:#ffffff;fill-opacity:1;stroke:none;stroke-opacity:1"
       x="58.054256"
       y="264.20929"
       width="1.4552083"
       height="16.748125"
       id="rect5198" />
    <path
       style="fill:#ffffff;fill-opacity:1;stroke:none;stroke-opacity:1"
       inkscape:connector-curvature="0"
       d="m 68.478844,278.92033 c -0.423334,0.39688 -0.899584,0.58208 -1.481667,0.58208 -0.582083,0 -1.058333,-0.1852 -1.42875,-0.60854 -0.370417,-0.42333 -0.582083,-0.9525 -0.582083,-1.64041 l 0,-11.48292 4.28625,0 0,-1.48167 -4.28625,0 0,-5.50333 -1.455209,0 0,5.50333 -2.301875,0 0,1.45521 2.301875,0 0,11.48292 c 0,1.05833 0.3175,1.95791 0.978959,2.64583 0.661458,0.71438 1.481666,1.05833 2.487083,1.05833 0.47625,0 0.926042,-0.0794 1.322917,-0.26458 0.396875,-0.15875 0.740833,-0.37042 1.058333,-0.635 l 0.3175,-0.26458 -0.846667,-1.24354 z"
       id="path5200" />
    <path
       style="fill:#ffffff;stroke:none;stroke-opacity:1;fill-opacity:1"
       inkscape:connector-curvature="0"
       d="m 80.702594,273.20533 c -0.449792,-0.34396 -0.9525,-0.60854 -1.508125,-0.79375 -0.529167,-0.18521 -1.084792,-0.34396 -1.613959,-0.50271 l -1.005416,-0.29104 c -0.396875,-0.10583 -0.820209,-0.21167 -1.217084,-0.37042 -0.370416,-0.13229 -0.740833,-0.3175 -1.058333,-0.52916 -0.291042,-0.21167 -0.555625,-0.50271 -0.740833,-0.87313 -0.185209,-0.37041 -0.291042,-0.84666 -0.291042,-1.42875 0,-0.47625 0.105833,-0.89958 0.3175,-1.24354 0.211667,-0.34396 0.502708,-0.66146 0.820208,-0.87312 0.343959,-0.23813 0.767292,-0.42334 1.217084,-0.52917 0.449791,-0.13229 0.926041,-0.18521 1.375833,-0.18521 0.79375,0 1.534583,0.10583 2.143125,0.3175 0.608542,0.21167 1.217083,0.52917 1.799167,0.97896 l 0.343958,0.26458 0.846667,-1.16416 -0.3175,-0.26459 c -0.714375,-0.58208 -1.455209,-0.97896 -2.248959,-1.24354 -0.767291,-0.26458 -1.640416,-0.37042 -2.592916,-0.37042 -0.608542,0 -1.243542,0.0794 -1.852084,0.23813 -0.608541,0.15875 -1.190625,0.42333 -1.693333,0.79375 -0.502708,0.37042 -0.926042,0.82021 -1.243542,1.34937 -0.3175,0.55563 -0.47625,1.21709 -0.47625,1.95792 0,0.87313 0.15875,1.5875 0.47625,2.14313 0.3175,0.52916 0.687917,0.97895 1.137709,1.32291 0.449791,0.3175 0.926041,0.58209 1.455208,0.74084 0.47625,0.15875 0.9525,0.29104 1.349375,0.39687 l 1.005417,0.29104 c 0.502708,0.13229 1.005416,0.29104 1.455208,0.44979 0.423333,0.15875 0.820208,0.34396 1.137708,0.58209 0.291042,0.21166 0.555625,0.50271 0.714375,0.87312 0.185209,0.37042 0.264584,0.84667 0.264584,1.42875 0,0.50271 -0.105834,0.9525 -0.343959,1.29646 -0.238125,0.37042 -0.529166,0.66146 -0.899583,0.87313 -0.370417,0.23812 -0.820208,0.39687 -1.296458,0.5027 -0.502709,0.10584 -1.005417,0.15875 -1.508125,0.15875 -0.926042,0 -1.799167,-0.1852 -2.619375,-0.52916 -0.820209,-0.34396 -1.561042,-0.84667 -2.196042,-1.48167 l -0.343958,-0.3175 -0.978959,1.13771 0.291042,0.29104 c 0.79375,0.76729 1.693333,1.34938 2.672292,1.77271 1.005416,0.39687 2.06375,0.60854 3.175,0.60854 0.608541,0 1.243541,-0.0794 1.878541,-0.21167 0.661459,-0.13229 1.243542,-0.39687 1.772709,-0.71437 0.529166,-0.34396 0.978958,-0.76729 1.322916,-1.32292 0.343959,-0.55562 0.529167,-1.24354 0.529167,-2.06375 0,-0.84666 -0.132292,-1.53458 -0.423333,-2.09021 -0.211667,-0.55562 -0.582084,-1.00541 -1.031875,-1.37583 z"
       id="path5202" />
    <path
       style="fill:#ffffff;stroke:none;stroke-opacity:1;fill-opacity:1"
       inkscape:connector-curvature="0"
       d="m 95.228218,266.08804 c -0.555625,-0.55563 -1.190625,-0.97896 -1.957916,-1.29646 -0.740834,-0.3175 -1.561042,-0.47625 -2.407709,-0.47625 -1.190625,0 -2.301875,0.3175 -3.254375,0.92604 -0.529166,0.34396 -1.005416,0.74084 -1.375833,1.21709 l 0,-12.11792 -1.455208,0 0,26.61708 1.455208,0 0,-10.4775 c 0,-0.66146 0.132292,-1.29646 0.343958,-1.85208 0.238125,-0.58208 0.555625,-1.08479 0.978959,-1.50813 0.423333,-0.42333 0.899583,-0.76729 1.481666,-1.00541 0.555625,-0.23813 1.190625,-0.34396 1.825625,-0.34396 0.635,0 1.243542,0.13229 1.799167,0.34396 0.555625,0.23812 1.058333,0.58208 1.455208,1.00541 0.423334,0.42334 0.740834,0.92605 0.978959,1.50813 0.238125,0.55562 0.343958,1.19062 0.343958,1.85208 l 0,10.4775 1.508125,0 0,-10.4775 c 0,-0.87312 -0.15875,-1.69333 -0.47625,-2.43416 -0.264583,-0.7673 -0.714375,-1.4023 -1.243542,-1.95792 z"
       id="path5204" />
    <path
       style="fill:#ffffff;stroke:none;stroke-opacity:1;fill-opacity:1"
       inkscape:connector-curvature="0"
       d="m 110.7328,266.29971 c -0.47625,-0.68792 -1.11125,-1.24355 -1.93146,-1.64042 -0.79375,-0.37042 -1.82562,-0.58208 -3.06916,-0.58208 -0.55563,0 -1.29646,0.0529 -2.14313,0.1852 -0.87312,0.1323 -1.85208,0.42334 -2.88396,0.84667 l -0.42333,0.18521 0.60854,1.37583 0.39688,-0.18521 c 0.89958,-0.39687 1.74625,-0.66145 2.51354,-0.76729 0.79375,-0.10583 1.45521,-0.15875 1.93146,-0.15875 0.9525,0 1.74625,0.13229 2.32833,0.39688 0.58208,0.26458 1.03187,0.635 1.37583,1.08479 0.34396,0.47625 0.58209,1.08479 0.71438,1.77271 0.10583,0.58208 0.18521,1.21708 0.21166,1.905 -1.7727,-0.37042 -3.33375,-0.55563 -4.70958,-0.55563 -2.16958,0 -3.86292,0.47625 -5.02708,1.37584 -0.793752,0.635 -1.322918,1.37583 -1.561043,2.16958 -0.238125,0.76729 -0.343959,1.45521 -0.343959,2.06375 0,0.44979 0.07937,0.97896 0.238125,1.56104 0.15875,0.58208 0.449792,1.16417 0.846667,1.69333 0.39687,0.52917 0.9525,0.97896 1.64042,1.34938 0.68791,0.37042 1.56104,0.58208 2.61937,0.58208 0.52917,0 1.08479,-0.0529 1.71979,-0.18521 0.60854,-0.13229 1.21709,-0.3175 1.82563,-0.58208 0.60854,-0.26458 1.21708,-0.60854 1.77271,-1.03187 0.37041,-0.29105 0.74083,-0.635 1.05833,-1.00542 l 0,2.61937 1.45521,0 0,-9.02229 c 0,-1.08479 -0.0794,-2.09021 -0.21167,-2.98979 -0.18521,-0.9525 -0.50271,-1.77271 -0.9525,-2.46062 z m -0.3175,5.95312 0,1.42875 c 0,0.50271 -0.0529,1.05833 -0.15875,1.5875 -0.0794,0.50271 -0.29104,0.97896 -0.60854,1.42875 -0.34396,0.50271 -0.76729,0.92604 -1.21708,1.29646 -0.47625,0.37042 -0.9525,0.66146 -1.45521,0.87312 -0.50271,0.21167 -1.00542,0.37042 -1.50813,0.47625 -0.50271,0.10584 -0.97896,0.15875 -1.42875,0.15875 -0.76729,0 -1.40229,-0.13229 -1.905,-0.39687 -0.50271,-0.26458 -0.89958,-0.60854 -1.16416,-0.97896 -0.29105,-0.37042 -0.47625,-0.76729 -0.60855,-1.19062 -0.10583,-0.42334 -0.1852,-0.79375 -0.1852,-1.11125 0,-0.47625 0.0794,-1.00542 0.26458,-1.61396 0.15875,-0.55563 0.52917,-1.03188 1.05833,-1.48167 0.92604,-0.71437 2.30188,-1.05833 4.10104,-1.05833 1.37584,-0.0265 2.9898,0.18521 4.81542,0.58208 z"
       id="path5206" />
    <path
       style="fill:#ffffff;stroke:none;stroke-opacity:1;fill-opacity:1"
       inkscape:connector-curvature="0"
       d="m 122.66551,265.162 c -0.39688,-0.26459 -0.84667,-0.47625 -1.34938,-0.635 -0.5027,-0.15875 -1.00541,-0.23813 -1.53458,-0.23813 -1.03187,0 -1.98437,0.29104 -2.83104,0.84667 -0.39688,0.26458 -0.76729,0.58208 -1.08479,0.9525 l 0,-1.61396 -1.50813,0 0,16.48354 1.50813,0 0,-10.795 c 0,-0.635 0.10583,-1.21708 0.29104,-1.74625 0.21167,-0.52916 0.47625,-1.00541 0.84667,-1.40229 0.34395,-0.39687 0.76729,-0.71437 1.24354,-0.92604 0.82021,-0.37042 1.79916,-0.42333 2.61937,-0.13229 0.37042,0.13229 0.71438,0.3175 1.03188,0.52916 l 0.47625,0.3175 0.52916,-1.4552 z"
       id="path5208" />
    <path
       style="fill:#ffffff;stroke:none;stroke-opacity:1;fill-opacity:1"
       inkscape:connector-curvature="0"
       d="m 124.27947,271.98825 13.25562,0 -0.0265,-0.47625 c -0.0794,-1.11125 -0.3175,-2.14313 -0.66145,-3.04271 -0.37042,-0.89958 -0.84667,-1.69333 -1.45521,-2.32833 -0.60854,-0.635 -1.34938,-1.16417 -2.16959,-1.50813 -0.8202,-0.34396 -1.7727,-0.52917 -2.77812,-0.52917 -1.11125,0 -2.16958,0.21167 -3.09563,0.635 -0.92604,0.42334 -1.74625,1.00542 -2.43416,1.77271 -0.66146,0.74084 -1.19063,1.64042 -1.56104,2.69875 -0.37042,1.03188 -0.55563,2.16959 -0.55563,3.38667 0,1.21708 0.18521,2.35479 0.55563,3.36021 0.37041,1.03187 0.89958,1.93146 1.56104,2.67229 0.66146,0.74083 1.48166,1.34937 2.43416,1.74625 0.92605,0.39687 1.98438,0.60854 3.09563,0.60854 1.24354,0 2.38125,-0.18521 3.41312,-0.58208 1.05834,-0.37042 1.95792,-0.92604 2.72521,-1.64042 l 0.3175,-0.29104 -0.92604,-1.08479 -0.34396,0.29104 c -0.635,0.55562 -1.40229,1.00542 -2.27541,1.34937 -0.87313,0.3175 -1.85209,0.47625 -2.91042,0.47625 -0.89958,0 -1.74625,-0.15875 -2.48708,-0.5027 -0.74084,-0.34396 -1.4023,-0.82021 -1.93146,-1.4023 -0.52917,-0.60854 -0.97896,-1.32291 -1.27,-2.16958 -0.29104,-0.84667 -0.44979,-1.79917 -0.44979,-2.83104 l 0,-0.50271 c -0.0265,-0.0529 -0.0265,-0.0794 -0.0265,-0.10583 z m 0.21166,-1.45521 c 0.1323,-0.635 0.34396,-1.21708 0.635,-1.74625 0.34396,-0.66146 0.7673,-1.24354 1.29646,-1.71979 0.52917,-0.47625 1.13771,-0.84667 1.79917,-1.11125 0.66146,-0.26459 1.42875,-0.39688 2.2225,-0.39688 0.89958,0 1.66687,0.15875 2.32833,0.44979 0.66146,0.29105 1.19063,0.68792 1.64042,1.19063 0.44979,0.50271 0.79375,1.08479 1.05833,1.71979 0.21167,0.50271 0.37042,1.05833 0.47625,1.61396 z"
       id="path5210" />
    <path
       style="fill:#ffffff;stroke:none;stroke-opacity:1;fill-opacity:1"
       inkscape:connector-curvature="0"
       d="m 149.83822,274.55471 c -0.29104,-0.55563 -0.66146,-1.00542 -1.11125,-1.34938 -0.44979,-0.34396 -0.9525,-0.60854 -1.50813,-0.79375 -0.52916,-0.18521 -1.08479,-0.34396 -1.61396,-0.50271 l -1.00541,-0.29104 c -0.39688,-0.10583 -0.82021,-0.21167 -1.21709,-0.37042 -0.37041,-0.13229 -0.74083,-0.3175 -1.05833,-0.52916 -0.29104,-0.21167 -0.55562,-0.50271 -0.74083,-0.87313 -0.18521,-0.37041 -0.29104,-0.84666 -0.29104,-1.42875 0,-0.47625 0.10583,-0.89958 0.3175,-1.24354 0.21166,-0.34396 0.5027,-0.66146 0.84666,-0.87312 0.34396,-0.23813 0.76729,-0.42334 1.21709,-0.52917 0.44979,-0.13229 0.92604,-0.18521 1.37583,-0.18521 0.79375,0 1.53458,0.10583 2.14312,0.3175 0.60855,0.21167 1.21709,0.52917 1.79917,0.97896 l 0.34396,0.26458 0.84667,-1.16416 -0.3175,-0.26459 c -0.71438,-0.58208 -1.45521,-0.97896 -2.24896,-1.24354 -0.76729,-0.26458 -1.64042,-0.37042 -2.59292,-0.37042 -0.60854,0 -1.24354,0.0794 -1.85208,0.23813 -0.60854,0.15875 -1.19063,0.42333 -1.69334,0.79375 -0.5027,0.37042 -0.92604,0.82021 -1.24354,1.34937 -0.3175,0.55563 -0.47625,1.21709 -0.47625,1.95792 0,0.87313 0.15875,1.5875 0.47625,2.14313 0.3175,0.52916 0.68792,0.97895 1.13771,1.32291 0.44979,0.3175 0.92604,0.58209 1.45521,0.74084 0.47625,0.15875 0.9525,0.29104 1.34937,0.39687 l 1.00542,0.29104 c 0.50271,0.13229 1.00542,0.29104 1.45521,0.44979 0.42333,0.15875 0.82021,0.34396 1.13771,0.58209 0.29104,0.21166 0.55562,0.50271 0.71437,0.87312 0.18521,0.37042 0.26459,0.84667 0.26459,1.42875 0,0.50271 -0.10584,0.9525 -0.34396,1.29646 -0.23813,0.37042 -0.52917,0.66146 -0.89959,0.87313 -0.37041,0.23812 -0.8202,0.39687 -1.29645,0.5027 -1.4023,0.3175 -2.8575,0.18521 -4.1275,-0.37041 -0.82021,-0.34396 -1.56105,-0.84667 -2.19605,-1.48167 l -0.34395,-0.3175 -0.97896,1.13771 0.29104,0.29104 c 0.79375,0.76729 1.69333,1.34938 2.67229,1.77271 1.00542,0.39687 2.06375,0.60854 3.175,0.60854 0.60854,0 1.24354,-0.0794 1.87854,-0.21167 0.66146,-0.13229 1.24354,-0.39687 1.77271,-0.71437 0.52917,-0.34396 0.97896,-0.76729 1.32292,-1.32292 0.34396,-0.55562 0.52916,-1.24354 0.52916,-2.06375 0.0529,-0.84666 -0.0794,-1.56104 -0.37041,-2.11666 z"
       id="path5212" />
    <path
       inkscape:connector-curvature="0"
       id="path4910-3-5"
       style="font-style:normal;font-variant:normal;font-weight:normal;font-stretch:normal;font-size:14.11111259px;line-height:125%;font-family:sans-serif;-inkscape-font-specification:sans-serif;letter-spacing:0px;word-spacing:0px;fill:#ffffff;fill-opacity:1;stroke:none;stroke-width:1px;stroke-linecap:butt;stroke-linejoin:miter;stroke-opacity:1"
       d="m 137.49179,287.99389 h 0.88549 v 5.38996 h -0.88549 z"
       sodipodi:nodetypes="ccccc" />
    <polygon
       style="fill:#ffffff;fill-opacity:1;stroke-width:1.4317416;stroke:none;stroke-opacity:1"
       points="361.2,273.5 361.2,284.8 351.8,276.9 351.8,265.7 "
       id="polygon5194-7-6-3"
       transform="matrix(0.12898808,0,0,0.12898808,91.786789,250.75994)" />
    <text
       xml:space="preserve"
       style="font-style:normal;font-weight:normal;font-size:3.17499995px;line-height:125%;font-family:Sans;text-align:center;letter-spacing:0px;word-spacing:0px;text-anchor:middle;fill:#ffffff;fill-opacity:1;stroke:none;stroke-width:0.26458332px;stroke-linecap:butt;stroke-linejoin:miter;stroke-opacity:1;"
       x="117.24385"
       y="293.24399"
       id="text1076-5"><tspan
         sodipodi:role="line"
         id="tspan1074-6"
         x="117.24385"
         y="293.24399"
         style="font-size:9.87777805px;stroke-width:0.26458332px;stroke:none;stroke-opacity:1;fill:#ffffff;fill-opacity:1;">foundat</tspan></text>
    <text
       xml:space="preserve"
       style="font-style:normal;font-weight:normal;font-size:3.17499995px;line-height:125%;font-family:Sans;text-align:center;letter-spacing:0px;word-spacing:0px;text-anchor:middle;fill:#ffffff;fill-opacity:1;stroke:none;stroke-width:0.26458332px;stroke-linecap:butt;stroke-linejoin:miter;stroke-opacity:1;"
       x="144.9146"
       y="293.24399"
       id="text1076-5-2"><tspan
         sodipodi:role="line"
         id="tspan1074-6-7"
         x="144.9146"
         y="293.24399"
         style="font-size:9.87777805px;stroke-width:0.26458332px;stroke:none;stroke-opacity:1;fill:#ffffff;fill-opacity:1;">on</tspan></text>
  </g>
</svg>
